<?xml version="1.0" encoding="UTF-8"?>
<svg id="Layer_1" data-name="Layer 1" xmlns="http://www.w3.org/2000/svg" viewBox="0 0 1500 1500">
  <defs>
    <style>
      .cls-1 {
        fill: #fff;
      }
    </style>
  </defs>
  <g>
    <path class="cls-1" d="M1335.12,362.28c-7.87-3.69-15.99-6.89-24.36-9.47-18.45-5.66-38.01-8.61-57.82-8.61-2.21,0-4.55,0-6.77.13-53.52,1.84-114.54,25.34-174.08,69.26l-.13.13c-34.82,25.71-69.14,58.31-101,97.81,123.89-17.71,243.47-18.08,352.35-3.57,13.29,1.85,26.58,3.82,39.49,6.03,39.12,6.64,76.65,15.26,112.2,25.71-27.93-83.66-75.78-147.76-139.88-177.41Z"/>
    <path class="cls-1" d="M658.34,1110.16c-16.61-110.6-9.97-234.24,23.99-359.48-135.45,58.44-237.57,135.95-297.23,214.81-18.95,24.97-33.71,50.07-43.68,74.8-15.01,36.42-20.05,71.97-14.15,104.82,22.64,126.35,208.16,224.89,445.85,243.96-48.72-60.16-84.03-136.81-104.2-223.54-4.18-17.96-7.75-36.54-10.58-55.36Z"/>
  </g>
  <g>
    <path class="cls-1" d="M1163.99,199.88c-55.61-54.99-132.01-88.95-216.28-88.95-169.9,0-307.57,137.67-307.57,307.57,0-169.9-137.79-307.57-307.57-307.57S25,248.6,25,418.5c0,183.06,63.97,351.12,170.64,483.13,8.61,10.58,17.35,20.92,26.45,31,14.89-26.45,32.85-52.41,53.64-77.63,102.48-124.62,272.63-231.9,480.79-295.76,98.3-189.71,250.49-322.21,407.47-359.37Z"/>
    <path class="cls-1" d="M1163.37,652.5c-70.62,0-143.2,6.64-215.55,19.56-27.81,4.92-54.99,10.83-81.32,17.35-9.47,22.89-18.33,46.88-26.08,71.97-35.55,114.91-44.66,234.49-26.58,338.69.74,4.43,1.48,8.74,2.46,13.04,173.59-82.43,311.38-228.22,383.48-407.59,6.77-16.86,13.04-34.08,18.7-51.55-18.08-.98-36.54-1.47-55.12-1.47Z"/>
  </g>
</svg>